<svg width="41" height="32" fill="none" xmlns="http://www.w3.org/2000/svg"><path d="M33.462 14.236s.54 2.657.662 3.214h-2.378c.235-.636 1.14-3.107 1.14-3.107-.015.021.234-.65.377-1.064l.199.957zM41 3.429V28.57A3.424 3.424 0 0137.583 32H3.417A3.424 3.424 0 010 28.571V3.43A3.424 3.424 0 013.417 0h34.166A3.424 3.424 0 0141 3.429zM10.855 21.37l4.499-11.085h-3.025L9.53 17.857l-.306-1.536-.997-5.1c-.163-.707-.669-.907-1.295-.935H2.328l-.05.221c1.124.286 2.128.7 3.004 1.222L7.83 21.37h3.025zm6.72.015l1.793-11.1h-2.861l-1.787 11.1h2.854zm9.958-3.629c.014-1.264-.755-2.228-2.4-3.021-1.003-.507-1.615-.85-1.615-1.372.014-.471.52-.957 1.644-.957a4.89 4.89 0 012.129.422l.256.121.391-2.4a7.088 7.088 0 00-2.562-.471c-2.826 0-4.812 1.514-4.826 3.671-.021 1.593 1.423 2.479 2.505 3.014 1.104.543 1.48.9 1.48 1.379-.013.743-.896 1.086-1.715 1.086-1.138 0-1.75-.179-2.683-.593l-.377-.179-.399 2.493c.67.307 1.908.579 3.189.593 3.004.007 4.961-1.486 4.983-3.786zm10.05 3.629l-2.306-11.1h-2.214c-.683 0-1.203.2-1.494.921l-4.25 10.179h3.004s.491-1.372.598-1.665h3.673c.085.393.341 1.665.341 1.665h2.648z" fill="#7E8183"/></svg>