<svg width="36" height="36" fill="none" xmlns="http://www.w3.org/2000/svg"><rect width="36" height="36" rx="6" fill="#fff"/><g clip-path="url(#clip0)"><path d="M5 18.5c0 5.528 3.324 10.277 8.08 12.365-.037-.942-.006-2.074.236-3.1.26-1.096 1.737-7.356 1.737-7.356s-.431-.862-.431-2.136c0-2 1.16-3.495 2.603-3.495 1.228 0 1.822.922 1.822 2.027 0 1.234-.788 3.08-1.193 4.791-.338 1.432.718 2.6 2.131 2.6 2.558 0 4.28-3.285 4.28-7.178 0-2.958-1.992-5.173-5.617-5.173-4.095 0-6.646 3.054-6.646 6.465 0 1.176.347 2.006.89 2.648.25.295.284.414.194.753-.065.248-.214.846-.275 1.083-.09.342-.367.464-.676.338-1.886-.77-2.765-2.836-2.765-5.158 0-3.835 3.235-8.433 9.649-8.433 5.154 0 8.546 3.73 8.546 7.733 0 5.296-2.944 9.253-7.284 9.253-1.457 0-2.828-.788-3.298-1.683 0 0-.784 3.11-.95 3.711-.286 1.04-.846 2.081-1.359 2.892a13.51 13.51 0 003.826.554C25.956 32 32 25.956 32 18.5 32 11.043 25.956 5 18.5 5 11.045 5 5 11.044 5 18.5z" fill="url(#paint0_linear)"/></g><defs><linearGradient id="paint0_linear" x1="8.24" y1="5" x2="23.9" y2="32" gradientUnits="userSpaceOnUse"><stop stop-color="#D22A2D"/><stop offset="1" stop-color="#D22C2E"/></linearGradient><clipPath id="clip0"><path fill="#fff" transform="translate(5 5)" d="M0 0h27v27H0z"/></clipPath></defs></svg>