<svg width="36" height="36" fill="none" xmlns="http://www.w3.org/2000/svg"><rect width="36" height="36" rx="6" fill="#fff"/><path d="M15.113 14.311l7.568 3.978-7.569 4.011v-7.989z" fill="#fff"/><path opacity=".12" d="M15.113 22.3l6.639-4.5.93.489-7.57 4.011z" fill="#3A3A3A"/><path d="M31.705 23.689s-.273 1.955-1.115 2.822c-1.06 1.133-2.253 1.133-2.81 1.2-3.903.289-9.774.289-9.774.289h-.012s-5.87 0-9.796-.289c-.546-.067-1.738-.067-2.81-1.2-.83-.867-1.104-2.822-1.104-2.822S4 21.378 4 19.078v-2.156c0-2.3.284-4.6.284-4.6S4.558 10.367 5.4 9.5c1.06-1.133 2.46-1.1 3.083-1.211C10.723 8.067 17.994 8 17.994 8s5.883.011 9.797.3c.546.067 1.738.067 2.81 1.2.841.867 1.115 2.822 1.115 2.822s.284 2.3.284 4.6v2.156a45.07 45.07 0 01-.295 4.61zM15.108 14.31v7.99l7.566-4.011-7.566-3.978z" fill="url(#paint0_linear)"/><defs><linearGradient id="paint0_linear" x1="17.994" y1="28" x2="17.994" y2="7.994" gradientUnits="userSpaceOnUse"><stop stop-color="#E52D27"/><stop offset="1" stop-color="#BF171D"/></linearGradient></defs></svg>