<svg width="36" height="36" fill="none" xmlns="http://www.w3.org/2000/svg"><rect width="36" height="36" rx="6" fill="url(#paint0_linear)"/><path d="M18 6.523c3.738 0 4.18.014 5.657.081 1.365.062 2.106.29 2.6.482.653.254 1.12.558 1.61 1.047.49.49.793.957 1.047 1.61.191.494.42 1.235.482 2.6.067 1.476.081 1.919.081 5.657s-.014 4.181-.081 5.657c-.063 1.365-.29 2.106-.482 2.6a4.339 4.339 0 01-1.048 1.61c-.49.49-.956.793-1.61 1.047-.493.191-1.234.42-2.599.482-1.476.067-1.919.081-5.657.081s-4.181-.014-5.657-.081c-1.365-.063-2.106-.29-2.6-.482a4.337 4.337 0 01-1.61-1.047 4.338 4.338 0 01-1.047-1.61c-.192-.494-.42-1.235-.482-2.6-.067-1.476-.081-1.919-.081-5.657s.014-4.18.081-5.657c.062-1.365.29-2.106.482-2.6a4.336 4.336 0 011.047-1.61c.49-.49.957-.793 1.61-1.047.493-.192 1.235-.42 2.6-.482 1.476-.067 1.919-.081 5.657-.081zM18 4c-3.802 0-4.279.016-5.772.084-1.49.068-2.508.305-3.399.651A6.862 6.862 0 006.35 6.35a6.862 6.862 0 00-1.614 2.48c-.346.89-.583 1.908-.65 3.398C4.015 13.72 4 14.198 4 18c0 3.802.016 4.279.084 5.772.068 1.49.305 2.508.651 3.399a6.86 6.86 0 001.615 2.48 6.862 6.862 0 002.48 1.614c.89.346 1.908.583 3.398.65 1.493.069 1.97.085 5.772.085 3.802 0 4.279-.016 5.772-.084 1.49-.068 2.508-.305 3.398-.651a6.86 6.86 0 002.48-1.615 6.862 6.862 0 001.615-2.48c.346-.89.583-1.908.65-3.398.069-1.493.085-1.97.085-5.772 0-3.802-.016-4.279-.084-5.772-.068-1.49-.305-2.508-.651-3.398a6.862 6.862 0 00-1.615-2.48 6.86 6.86 0 00-2.48-1.615c-.89-.346-1.908-.583-3.398-.65C22.28 4.015 21.802 4 18 4zm0 6.81a7.19 7.19 0 100 14.38 7.19 7.19 0 000-14.38zm0 11.857a4.667 4.667 0 110-9.334 4.667 4.667 0 010 9.334zm9.153-12.14a1.68 1.68 0 11-3.36 0 1.68 1.68 0 013.36 0z" fill="#fff"/><defs><linearGradient id="paint0_linear" x1="3.5" y1="3.5" x2="18" y2="36" gradientUnits="userSpaceOnUse"><stop stop-color="#4D62D4"/><stop offset=".281" stop-color="#8A42D2"/><stop offset=".547" stop-color="#DF4134"/><stop offset=".776" stop-color="#E78437"/><stop offset="1" stop-color="#FBDC80"/></linearGradient></defs></svg>