<svg width="48" height="32" fill="none" xmlns="http://www.w3.org/2000/svg"><path d="M23.313 4.438a10.364 10.364 0 00-5.855-1.771c-1.43 0-2.802.28-4.114.843-1.313.563-2.441 1.316-3.386 2.26-.944.945-1.698 2.07-2.26 3.376a10.265 10.265 0 00-.844 4.104c0 1.444.281 2.82.844 4.125.562 1.306 1.316 2.43 2.26 3.375.945.944 2.07 1.698 3.375 2.26 1.306.563 2.68.844 4.125.844 2.125 0 4.077-.59 5.855-1.77-1.82-1.487-3.056-3.33-3.709-5.532-.653-2.201-.65-4.4.01-6.594s1.893-4.034 3.698-5.52zm.687.5c-1.75 1.375-2.944 3.107-3.583 5.197a10.519 10.519 0 00-.01 6.26c.631 2.084 1.83 3.813 3.593 5.188 1.764-1.375 2.962-3.104 3.594-5.187.632-2.084.628-4.17-.01-6.26-.64-2.09-1.834-3.823-3.584-5.198zm.688-.5c1.805 1.486 3.038 3.33 3.697 5.53.66 2.202.664 4.403.01 6.605-.652 2.201-1.888 4.038-3.707 5.51a10.364 10.364 0 005.854 1.771c1.444 0 2.82-.281 4.125-.844 1.305-.562 2.43-1.316 3.375-2.26.944-.944 1.698-2.07 2.26-3.375.563-1.306.844-2.68.844-4.125 0-1.43-.281-2.799-.844-4.104-.562-1.306-1.316-2.43-2.26-3.375-.945-.945-2.073-1.698-3.386-2.26a10.339 10.339 0 00-4.114-.844c-2.125 0-4.077.59-5.855 1.77zm15.437 15.041h.146v-.062h-.354v.062h.145v.354h.063v-.354zm.604.354h.084v-.416h-.105l-.125.27-.125-.27h-.104v.416h.063v-.312l.125.27h.083l.104-.27v.312zM40.563 29v.042h-.105v-.063h.105V29zm0 .188h.062l-.083-.105h.041l.021-.02c.014-.014.021-.035.021-.063 0-.028-.007-.049-.02-.063l-.022-.02h-.187v.27h.062v-.104h.021l.084.105zM14.27 27.77c0-.264.076-.48.229-.646.153-.167.361-.25.625-.25.25 0 .451.087.604.26a.93.93 0 01.23.636c0 .264-.077.479-.23.646a.781.781 0 01-.604.25c-.264 0-.472-.084-.625-.25-.153-.167-.23-.382-.23-.646zm9.854-.917c.417 0 .66.222.73.667h-1.46c.07-.445.313-.667.73-.667zm7.417.917c0-.264.076-.48.229-.646a.78.78 0 01.604-.25.8.8 0 01.615.26c.16.174.24.386.24.636 0 .264-.077.479-.23.646-.153.166-.361.25-.625.25a.781.781 0 01-.604-.25c-.153-.167-.23-.382-.23-.646zm5.666 0c0-.25.08-.462.24-.636a.798.798 0 01.614-.26.8.8 0 01.615.26c.16.174.24.386.24.636 0 .264-.08.479-.24.646a.814.814 0 01-.614.25.797.797 0 01-.615-.26.904.904 0 01-.24-.636zm3.292 1.5a.184.184 0 01-.083-.021c-.014 0-.035-.014-.063-.042-.028-.027-.041-.048-.041-.062a.184.184 0 01-.021-.084c0-.041.007-.069.02-.083 0-.028.014-.055.042-.083l.021-.021c.028 0 .042-.007.042-.02a.184.184 0 01.083-.022c.042 0 .07.007.083.021l.084.042.041.083V29a.16.16 0 01.021.063l-.02.02v.063l-.022.02-.02.042c-.028.028-.056.042-.084.042-.014.014-.041.02-.083.02zm-28.02-.084h.624v-1.77c0-.334-.1-.601-.302-.802-.201-.202-.476-.31-.823-.323-.444 0-.77.166-.979.5-.194-.334-.507-.5-.938-.5a.97.97 0 00-.812.416v-.333h-.625v2.813h.625v-1.563c0-.5.23-.75.688-.75.416 0 .624.25.624.75v1.563h.605v-1.563c0-.5.229-.75.687-.75.417 0 .625.25.625.75v1.563zm3.457 0h.605v-2.812h-.605v.333a1.125 1.125 0 00-.895-.416 1.32 1.32 0 00-1 .416c-.264.278-.396.632-.396 1.063 0 .43.132.785.396 1.062a1.32 1.32 0 001 .417c.389 0 .687-.139.896-.417v.355zm3.709-.854c0-.472-.327-.75-.98-.833l-.291-.042c-.32-.055-.48-.152-.48-.291 0-.209.174-.313.522-.313.32 0 .618.077.895.23l.25-.5c-.305-.195-.687-.292-1.145-.292-.361 0-.646.083-.855.25a.81.81 0 00-.312.666c0 .459.326.73.98.813l.27.041c.333.056.5.153.5.292 0 .236-.215.354-.646.354-.347 0-.66-.097-.937-.291l-.271.479c.347.236.75.354 1.208.354.403 0 .719-.083.948-.25a.784.784 0 00.344-.667zm2.708.709l-.166-.521a1.14 1.14 0 01-.542.146c-.264 0-.396-.153-.396-.459v-1.27h1v-.563h-1v-.854h-.625v.854h-.583v.563h.583v1.27c0 .695.326 1.042.98 1.042.29 0 .54-.07.75-.208zm1.792-2.75a1.32 1.32 0 00-1 .416c-.264.278-.396.632-.396 1.063 0 .444.135.802.406 1.073.271.27.615.406 1.032.406.458 0 .84-.132 1.145-.396l-.291-.458c-.25.208-.521.312-.813.312-.472 0-.757-.229-.854-.687h2.104v-.25c0-.445-.125-.802-.375-1.073a1.25 1.25 0 00-.958-.406zm3.312 0a.801.801 0 00-.729.416v-.333h-.625v2.813h.625v-1.584c0-.486.202-.729.604-.729a.83.83 0 01.375.083l.188-.583a1.068 1.068 0 00-.438-.083zm.625 1.479c0 .43.136.785.407 1.062.27.278.635.417 1.093.417.403 0 .736-.111 1-.333l-.291-.5c-.25.18-.493.264-.73.25a.814.814 0 01-.614-.25.895.895 0 01-.24-.646c0-.264.08-.48.24-.646a.814.814 0 01.614-.25c.264 0 .507.083.73.25l.291-.5a1.551 1.551 0 00-1-.333c-.458 0-.823.139-1.093.416-.271.278-.407.632-.407 1.063zm5.105 1.416h.624v-2.812h-.624v.333c-.209-.277-.5-.416-.876-.416-.402 0-.74.139-1.01.416-.27.278-.406.632-.406 1.063 0 .43.135.785.406 1.062.27.278.608.417 1.01.417.39 0 .681-.139.876-.417v.355zm2.77-2.895a.801.801 0 00-.729.416v-.333h-.604v2.813h.604v-1.584c0-.486.202-.729.604-.729a.83.83 0 01.375.083l.188-.583a.981.981 0 00-.438-.083zm2.917 2.895h.604V25.23h-.604v1.48c-.208-.278-.507-.417-.896-.417s-.719.142-.99.427a1.47 1.47 0 00-.406 1.052c0 .416.136.767.407 1.052.27.285.6.427.99.427.402 0 .7-.139.895-.417v.355zm1.625-.416l-.042.02h-.062a.328.328 0 00-.084.063c-.041.014-.062.042-.062.084a.29.29 0 00-.02.125c0 .041.006.076.02.104 0 .027.02.055.063.083a.328.328 0 00.083.063c.028.013.062.02.104.02a.29.29 0 00.125-.02c0-.014.014-.028.042-.042l.041-.021a.617.617 0 00.063-.083.232.232 0 00.02-.105.29.29 0 00-.02-.125.626.626 0 01-.063-.083c0-.014-.014-.028-.041-.041l-.042-.021a.283.283 0 01-.063-.01.288.288 0 00-.062-.011zM48 2.667v26.666c0 .723-.264 1.348-.792 1.875-.527.528-1.152.792-1.875.792H2.667c-.723 0-1.348-.264-1.875-.792C.264 30.681 0 30.056 0 29.333V2.667C0 1.944.264 1.319.792.792 1.319.264 1.944 0 2.667 0h42.666c.723 0 1.348.264 1.875.792.528.527.792 1.152.792 1.875z" fill="#7E8183"/></svg>