<svg width="141" height="19" fill="none" xmlns="http://www.w3.org/2000/svg"><path d="M1.016 15V3.625h3.5c1 0 1.893.227 2.68.68a4.673 4.673 0 011.85 1.922c.444.828.665 1.77.665 2.828v.523c0 1.057-.219 1.998-.656 2.82a4.646 4.646 0 01-1.836 1.915c-.792.453-1.685.682-2.68.687H1.016zm2.343-9.477v7.594h1.133c.917 0 1.617-.3 2.102-.898.484-.6.732-1.456.742-2.57v-.602c0-1.156-.24-2.031-.719-2.625-.479-.6-1.18-.899-2.101-.899H3.359zm11.125-1.898l2.922 8.25 2.907-8.25h3.078V15h-2.352v-3.11l.234-5.367L18.203 15h-1.61l-3.062-8.469.235 5.36V15h-2.344V3.625h3.062zm19.883 7.586c-.088 1.224-.541 2.187-1.36 2.89-.812.704-1.885 1.055-3.218 1.055-1.458 0-2.607-.49-3.445-1.469-.834-.984-1.25-2.333-1.25-4.046v-.696c0-1.093.192-2.057.578-2.89.385-.834.935-1.472 1.648-1.914.72-.448 1.552-.672 2.5-.672 1.313 0 2.37.351 3.172 1.054.802.704 1.266 1.69 1.39 2.961H32.04c-.057-.734-.263-1.265-.617-1.593-.35-.334-.883-.5-1.602-.5-.78 0-1.367.28-1.758.843-.385.558-.583 1.425-.593 2.602v.86c0 1.229.185 2.127.554 2.695.375.567.964.851 1.766.851.724 0 1.263-.164 1.617-.492.36-.333.565-.846.617-1.54h2.344zm7.961 1.445h-4.11L37.439 15h-2.493L39.18 3.625h2.172L45.609 15h-2.492l-.789-2.344zm-3.476-1.898h2.843L40.265 6.5l-1.413 4.258z" fill="#7E8183"/><path fill-rule="evenodd" clip-rule="evenodd" d="M51 0a1 1 0 00-1 1v16a1 1 0 001 1h89a1 1 0 001-1V1a1 1 0 00-1-1H51zm30.313 12.516c.395-.844.593-1.826.593-2.946v-.508c0-1.114-.203-2.096-.61-2.945-.4-.854-.97-1.508-1.71-1.96-.734-.46-1.576-.688-2.523-.688-.948 0-1.792.229-2.532.687-.734.453-1.304 1.107-1.71 1.961-.402.85-.602 1.834-.602 2.953v.563c.005 1.094.21 2.062.617 2.906.406.839.98 1.484 1.719 1.938.74.453 1.58.68 2.523.68.953 0 1.797-.23 2.531-.688.74-.459 1.308-1.11 1.704-1.953zm-2.422-6.18c.427.62.64 1.526.64 2.719v.554c-.005 1.183-.219 2.084-.64 2.704-.422.614-1.026.921-1.813.921-.802 0-1.416-.32-1.844-.96-.427-.641-.64-1.542-.64-2.704v-.554c.005-1.183.221-2.079.648-2.688.427-.614 1.034-.922 1.82-.922.792 0 1.401.31 1.829.93zm-24.532 4.656V15h-2.343V3.625h4.437c.854 0 1.604.156 2.25.469.651.312 1.151.758 1.5 1.336.35.573.524 1.226.524 1.96 0 1.115-.383 1.995-1.149 2.641-.76.64-1.815.961-3.164.961H54.36zm0-1.898h2.094c.62 0 1.091-.146 1.414-.438.328-.291.492-.708.492-1.25 0-.557-.164-1.008-.492-1.351-.328-.344-.781-.521-1.36-.532H54.36v3.57zm12.196 1.742h-1.868V15h-2.343V3.625h4.226c1.344 0 2.38.3 3.11.898.729.6 1.093 1.446 1.093 2.54 0 .776-.169 1.424-.507 1.945-.334.515-.842.927-1.524 1.234l2.461 4.649V15h-2.516l-2.132-4.164zm-1.868-1.899h1.891c.589 0 1.044-.148 1.367-.445.323-.302.485-.716.485-1.242 0-.536-.154-.958-.461-1.266-.302-.307-.768-.46-1.399-.46h-1.882v3.413zM91.5 5.524h-3.484V15h-2.344V5.523h-3.438V3.625H91.5v1.898zm3.688 4.547h4.5V8.234h-4.5v-2.71h5.265v-1.9h-7.61V15h7.626v-1.883h-5.281V10.07zm15.585 1.14c-.088 1.225-.541 2.188-1.359 2.892-.812.703-1.885 1.054-3.219 1.054-1.458 0-2.606-.49-3.445-1.469-.833-.984-1.25-2.333-1.25-4.046v-.696c0-1.093.193-2.057.578-2.89.386-.834.935-1.472 1.649-1.914.718-.448 1.552-.672 2.5-.672 1.312 0 2.369.351 3.171 1.054.803.704 1.266 1.69 1.391 2.961h-2.344c-.057-.734-.263-1.265-.617-1.593-.349-.334-.883-.5-1.601-.5-.782 0-1.368.28-1.758.843-.386.558-.584 1.425-.594 2.602v.86c0 1.229.185 2.127.555 2.695.375.567.963.851 1.765.851.724 0 1.263-.164 1.617-.492.36-.333.566-.846.618-1.54h2.343zm6.383-5.687h3.485V3.625h-9.266v1.898h3.437V15h2.344V5.523zm11.672 4.547h-4.5v3.047h5.281V15h-7.625V3.625h7.61v1.898h-5.266v2.711h4.5v1.836zm2.156-6.445V15h3.524c.995-.005 1.888-.234 2.68-.688a4.646 4.646 0 001.835-1.914c.438-.822.657-1.763.657-2.82v-.523c0-1.058-.222-2-.664-2.828a4.674 4.674 0 00-1.852-1.922c-.786-.453-1.68-.68-2.68-.68h-3.5zm2.344 9.492V5.523h1.156c.922 0 1.623.3 2.102.899.479.594.719 1.469.719 2.625v.601c-.011 1.115-.258 1.972-.743 2.57-.484.6-1.184.9-2.101.9h-1.133z" fill="#7E8183"/></svg>